# xmcd
#
# Track frame offsets: 
#        150
#        14418
#        25008
#        33664
#        45786
#        58780
#        71123
#        82311
#        94385
#        104629
#        116045
#        127084
#        139141
#        148959
#        161850
#        174375
#        187865
#        196872
#        207711
#        220270
#        231415
#        243884
#        255249
#        265722
#
# Disc length: 3663 seconds
#
# Revision: 0
# Processed by: cddbd v1.5.2PL0 Copyright (c) Steve Scherf et al.
# Submitted via: ExactAudioCopyFreeDBPlugin 1.0
#
DISCID=6d0e4d18
DTITLE=Susan McCann - The Nashville Years - Disc 1
DYEAR=2009
DGENRE=Country
TTITLE0=Someone Is Looking For Someone Like You
TTITLE1=Slipping Around Again
TTITLE2=All Day Sucker
TTITLE3=He's Everything I Wanted You To Be
TTITLE4=Someone Just Like You
TTITLE5=Just Like You (I'm Looking For The Light)
TTITLE6=Little Girl Gone
TTITLE7=The Dream
TTITLE8=Life Turned Him That Way
TTITLE9=She's Out There Dancing Alone
TTITLE10=Love Is Supposed To Be
TTITLE11=Blue Kentucky Girl
TTITLE12=Blue Jean Country Queen
TTITLE13=The Last One To Touch Me
TTITLE14=Even Cowgirls Get The Blues
TTITLE15=Late Late Show
TTITLE16=Heaven Help The Working Girl
TTITLE17=Your Driving Me Out Of My Mind
TTITLE18=I Don't Blame My Papa
TTITLE19=They'll Never Ever Take His Love From Me
TTITLE20=Hands
TTITLE21=Conscience Keep An Eye On Me Tonight
TTITLE22=It's No Wonder I Feel Blue
TTITLE23=I Want Your Loving Arms Around Me
EXTD=
EXTT0=
EXTT1=
EXTT2=
EXTT3=
EXTT4=
EXTT5=
EXTT6=
EXTT7=
EXTT8=
EXTT9=
EXTT10=
EXTT11=
EXTT12=
EXTT13=
EXTT14=
EXTT15=
EXTT16=
EXTT17=
EXTT18=
EXTT19=
EXTT20=
EXTT21=
EXTT22=
EXTT23=
PLAYORDER=
